<svg id="Слой_1" data-name="Слой 1" xmlns="http://www.w3.org/2000/svg" viewBox="0 0 35 35"><rect width="35" height="35" style="fill:#fff;opacity:0.6"/><path d="M35,35H0V0H35ZM33.45268,18.131c-.01576-.0346-.02922-.07047-.0476-.1036-.38682-.69719-.76267-1.40077-1.16352-2.08981a35.78831,35.78831,0,0,0-5.08648-6.93508A16.51967,16.51967,0,0,0,22.6104,5.54072a8.96245,8.96245,0,0,0-7.85454-.25646A14.31675,14.31675,0,0,0,10.6972,8.02818a31.32269,31.32269,0,0,0-4.8908,6.03215,1.01749,1.01749,0,0,0-.04828.10009c.08093.00423.14356.0102.20621.01037.9412.00256,1.88245,0,2.82355.01036a.371.371,0,0,0,.36017-.18983A28.02673,28.02673,0,0,1,12.37814,9.905a14.28613,14.28613,0,0,1,3.50018-2.73052,7.70987,7.70987,0,0,1,6.59014-.50618,12.33462,12.33462,0,0,1,3.79287,2.36457,27.60414,27.60414,0,0,1,4.522,5.22846c.845,1.2282,1.62673,2.49989,2.43977,3.75016a1.19969,1.19969,0,0,0,.174.1759Zm-5.46559-2.63445-2.25353.001,2.25353-.001c-.15482-.00364-.22069.05654-.26266.2072-.0834.29939-.18052.595-.27244.892-.17007.54959-.34047,1.09908-.52319,1.68882-.04407-.11832-.075-.19546-.10173-.274-.25851-.76046-.52127-1.51955-.77053-2.283a.281.281,0,0,0-.323-.23l-.95542-.00113c.51253,1.3437,1.08186,2.84986,1.59337,4.194a.252.252,0,0,0,.28117.1831,3.46628,3.46628,0,0,1,.50587.00106.30985.30985,0,0,0,.3688-.25367c.10566-.33053.2351-.65347.36968-1.02092.15137.38639.28863.72843.4188,1.07315a.263.263,0,0,0,.29.20058,4.57865,4.57865,0,0,1,.52549,0,.26606.26606,0,0,0,.29267-.1968c.52427-1.31841,1.13754-2.86245,1.66293-4.18041l-.97369.00066a.28851.28851,0,0,0-.32574.23c-.26591.77161-.54209,1.53969-.81507,2.30886-.0265.07468-.05634.14817-.09988.2621-.14323-.411-.27473-.77625-.39485-1.14521a.347.347,0,0,1,.02136-.20393c.14235-.40313.36206-1.04982.50573-1.4525Zm-5.12138-.06233a2.25039,2.25039,0,1,0,2.2471,2.257A2.25906,2.25906,0,0,0,22.86571,15.43419Zm1.12149,2.2382a1.12711,1.12711,0,1,1-1.12589-1.15918A1.11732,1.11732,0,0,1,23.9872,17.67239Zm-4.41329,9.39c.53844,0,1.07691-.00257,1.61533.00146.1445.00108.21878-.04583.21417-.20114-.00616-.20735-.00425-.41507-.00071-.62254.00224-.13092-.054-.18644-.18617-.18612q-1.411.00332-2.822,0c-.1344-.00033-.18.056-.17973.18789q.00449,2.004.00068,4.008c-.00017.12163.04286.17709.17.17678q1.44992-.00348,2.89983,0c.12759.0003.17211-.05683.16947-.17775-.00424-.19447-.01148-.38984.00211-.58346.01328-.18932-.06-.25-.24538-.24708-.55129.00857-1.1028.00337-1.65422.00264-.068-.00009-.1361-.00565-.19831-.00841v-.74749h.22577c.38275,0,.76555-.00373,1.14823.00165.15652.0022.22666-.05394.21575-.21695a3.40513,3.40513,0,0,1-.00006-.44722c.01014-.1562-.062-.20893-.20645-.20574-.17507.00386-.35029.00057-.52545.00052-.2836-.00007-.56719,0-.86108,0v-.735Zm7.57356,2.359h-.20121v-.7563h.2259c.37655,0,.75322-.0055,1.12961.00234.17716.00369.24967-.0627.23618-.24077a2.933,2.933,0,0,1-.00025-.40863c.01029-.16012-.05781-.224-.21511-.22165-.30507.00447-.61026.00106-.91539.001-.153,0-.306,0-.467,0v-.735h.232q.76933,0,1.53867-.0002c.26446-.00031.2673-.00383.2681-.27568.00047-.16227-.0094-.32523.00255-.4866.01365-.18428-.05189-.2533-.242-.24868-.4477.01089-.89585.00342-1.34382.00344-.46095,0-.922.0046-1.38282-.00227-.15989-.00239-.23033.05684-.21575.21553.00118.01286,0,.02594,0,.03892q0,1.93742,0,3.87482c0,.12711-.00854.24718.18336.24617.96083-.005,1.92171-.00364,2.88256-.00087.13787.00039.18337-.06337.18093-.19061-.00363-.18815-.00021-.37643-.001-.56465-.001-.23531-.01518-.24968-.25942-.25ZM23.31867,23.382c.38955-.0001.77913-.00295,1.16864.00113.13927.00145.209-.04985.195-.19448-.00249-.02572-.00034-.05189-.00028-.07786.00142-.5888.00142-.5888-.57965-.5888H23.09768v-.74083c.61488,0,1.21175-.00525,1.80841.00329.17234.00247.23287-.06075.226-.22572a5.41679,5.41679,0,0,1,.00055-.545c.0111-.18827-.06531-.24542-.25052-.24383q-1.34385.01155-2.68784,0c-.18437-.00157-.25137.05322-.249.24257.00857.68791.00329,1.376.0033,2.064,0,.62311.00125,1.24622-.00084,1.86932-.00039.1179.01925.20438.16509.20417q1.45107-.00207,2.90213,0c.13507.00013.18-.0671.17566-.196-.00654-.1945-.01081-.38995.00106-.58394.01073-.17534-.06255-.22378-.228-.22052-.42834.00843-.857.0028-1.28546.00279H23.09V23.382C23.17857,23.382,23.24862,23.382,23.31867,23.382ZM5.27892,18.06158c.00129-.1217-.05033-.17737-.17542-.17515-.23357.00415-.46752.00782-.70081-.00128-.15927-.00621-.20444.06829-.20048.2113.0052.188-.0028.37639.00266.56439a.14.14,0,0,1-.13677.16826,1.15888,1.15888,0,0,1-.77584-.0958,1.238,1.238,0,0,1-.45978-1.67343,1.10974,1.10974,0,0,1,1.58545-.36638c.12866.078.19469.04857.268-.063.11749-.17879.23584-.358.36821-.52571.12124-.15359.07991-.24056-.07293-.33881a2.26575,2.26575,0,0,0-2.74939.29309,2.24255,2.24255,0,0,0-.161,3.05367,2.44,2.44,0,0,0,3.09516.47667.28845.28845,0,0,0,.10739-.20455c.01405-.21319.005-.42789.005-.642C5.27823,18.51574,5.27651,18.28864,5.27892,18.06158Zm14.96744.01468c.00515-.14625-.05642-.195-.19643-.19065-.22045.00689-.44156.00861-.66185-.00056-.14951-.00622-.21508.0453-.20958.19916a5.78587,5.78587,0,0,1-.00384.58357.19692.19692,0,0,1-.1041.148,1.08765,1.08765,0,0,1-.91167-.14495,1.25388,1.25388,0,0,1-.32227-1.66691,1.11853,1.11853,0,0,1,1.55909-.309c.11134.08261.183.05406.25374-.05363.1139-.1734.23622-.34126.35466-.5117.14964-.21535.14554-.2361-.07149-.37359a2.25537,2.25537,0,0,0-2.4612.08283,2.22472,2.22472,0,0,0-.90421,2.28866,2.36,2.36,0,0,0,3.53868,1.4789.3221.3221,0,0,0,.13221-.22657c.01834-.21254.00622-.4277.00622-.64182C20.24433,18.5174,20.23859,18.29659,20.24636,18.07626Zm-4.593,1.55433a1.26554,1.26554,0,0,0-.13067-2.23c-.27222-.11966-.55486-.21548-.83129-.32582a1.58617,1.58617,0,0,1-.38508-.17776.35713.35713,0,0,1-.12877-.27089.32452.32452,0,0,1,.19548-.20573.62174.62174,0,0,1,.37845-.03036,2.65783,2.65783,0,0,1,.57845.29458c.12519.08113.21329.10259.31681-.01921.09648-.11352.20353-.218.30517-.3272.21164-.22733.21418-.29122-.03146-.47751a2.11126,2.11126,0,0,0-2.02212-.33956,1.14736,1.14736,0,0,0-.29225,2.109,8.51333,8.51333,0,0,0,.83351.41087c.16292.078.33212.14376.49084.22922a.29252.29252,0,0,1,.14278.34975.338.338,0,0,1-.279.28536.85683.85683,0,0,1-.6546-.10682,3.81674,3.81674,0,0,1-.44288-.31488.19646.19646,0,0,0-.31513.01815c-.12875.13676-.26715.265-.4071.39048a.16787.16787,0,0,0-.00644.28066,2.284,2.284,0,0,0,1.63138.75013A1.92234,1.92234,0,0,0,15.65339,19.63059Zm-4.96412,5.23554c.13617-.08522.18266-.16013.07131-.30447a6.46335,6.46335,0,0,1-.383-.56224c-.08007-.13013-.15784-.13149-.28768-.067a1.59623,1.59623,0,0,1-.5216.188,1.0879,1.0879,0,0,1-1.1314-.71309,1.21088,1.21088,0,0,1,.32966-1.36391,1.086,1.086,0,0,1,1.33231-.05961c.094.07445.16885.07562.24146-.03257.14084-.20987.28641-.41666.434-.62187.0813-.11306.04569-.18658-.06114-.25457a2.25039,2.25039,0,1,0-1.22088,4.13518A2.19277,2.19277,0,0,0,10.68927,24.86613Zm4.6528-2.59461c-.20421-.43387-.41081-.86666-.60964-1.303a.2949.2949,0,0,0-.316-.19824c-.26566.01127-.53215.00184-.79828.00343-.21461.00129-.2319.03124-.12453.22174.417.73987.83818,1.47745,1.24981,2.2203a.73164.73164,0,0,1,.08452.32845c.00917.46706.00626.93442.00236,1.40162-.001.12221.02621.20422.1672.20375q.3992-.00135.79839,0c.12507.00041.17046-.062.16565-.18348-.00617-.15549.01529-.31354-.0041-.46682a2.94552,2.94552,0,0,1,.55338-2.11743c.30833-.44645.54828-.9403.81549-1.41483.08669-.15394.0634-.19043-.11376-.193a4.77939,4.77939,0,0,1-.58354-.00542.556.556,0,0,0-.68182.4271c-.14489.39911-.35326.77519-.543,1.18036C15.37379,22.32524,15.35529,22.29962,15.34207,22.27152Zm-3.04635,1.606c0-.96059-.00317-1.92121.00285-2.88177.00107-.17084-.058-.23205-.22663-.22488-.2333.00992-.46741.00611-.701.00118-.13665-.00288-.203.04523-.20278.19107q.00362,2.00556-.00009,4.01113c-.00024.12725.05618.17565.17507.17559q1.266-.00065,2.532.00091c.13021.00031.1893-.05086.18517-.18529-.00579-.188-.00084-.3764-.00116-.56463-.00048-.28307-.00073-.28335-.27505-.28347-.48593-.00021-.97185-.00006-1.48834-.00006Zm.58032,5.27971c0-.95351-.00413-1.907.00349-2.8605.00151-.18891-.06315-.25378-.24771-.24466-.233.01152-.467.00563-.70057.00217-.13148-.002-.18378.05274-.1835.18643q.00414,2.0043.00053,4.00862c-.00017.1202.03933.17808.16834.17765q1.27492-.00415,2.54987-.0001c.127.00038.17393-.05437.17034-.17632-.00458-.15554.0007-.31134-.00112-.467-.00464-.39563.06954-.39861-.40171-.39651-.44571.002-.89145.00042-1.358.00042Zm3.18329-.02114q0-1.41015-.00035-2.82029c-.00021-.25135-.01-.25982-.26539-.26087-.214-.00088-.42839.00753-.64193-.00245-.17316-.00808-.2259.06752-.22416.23052.00561.5251.00195,1.05029.00195,1.57545q0,1.167.00033,2.334c.00007.11921-.00922.236.17269.235.84954-.00445,1.69912-.0031,2.54868-.00085.12623.00033.17453-.05656.17321-.1769-.00248-.22689-.00395-.4539.00059-.68072.00277-.13813-.06914-.18265-.19306-.18164-.17509.00143-.3502.00009-.5253.00006-.34172-.00005-.68344,0-1.04726,0ZM6.87242,18.57177q0-1.40161-.00017-2.80323c-.00011-.25842-.00848-.26685-.25745-.268-.2077-.001-.4159.0086-.623-.00286-.18154-.01-.25168.0488-.25068.24081q.01,1.94664.00006,3.89333c-.00095.18738.0586.24452.24534.24318,1.05408-.00756,2.10828.00149,3.16238-.00545.69731-.00459.542.11179.77619-.54166.00437-.01219.00612-.02879.015-.03532.0588-.04327.11783-.11793.17932-.12045.30456-.01248.60993-.00811.915-.00484.18649.002.41064-.04773.54787.03791.11855.074.13828.30628.20151.46866.0047.01207.004.03016.01249.03621.07663.05488.15168.14749.233.15375.2581.01988.51871.0088.77831.006a.95167.95167,0,0,0,.16178-.03309c-.12639-.32427-.24337-.62514-.36088-.9258-.415-1.06192-.83351-2.12252-1.242-3.18694a.29135.29135,0,0,0-.33039-.226,2.72689,2.72689,0,0,1-.46685-.00069.32029.32029,0,0,0-.37074.25363c-.476,1.24667-.96227,2.48942-1.44573,3.73324-.0257.06611-.056.13042-.08423.19557a3.27349,3.27349,0,0,1-.03544-.57733c-.00046-.26105-.00811-.269-.27615-.26923-.48564-.00049-.97128-.00013-1.4845-.00013Zm3.933-1.64149.45429,1.27683h-.93992l.43855-1.2712Zm6.8227,8.00213c-.00162.15871.0499.22176.21107.2198.48666-.00592.97376.00887,1.4601-.00505a2.17927,2.17927,0,0,0,.26-4.34125c-.55994-.05224-1.1661-.03658-1.70393-.03624-.19405-.00611-.23.06964-.22768.25057.00826.64869.00324,1.29755.00325,1.94635C17.6309,23.62187,17.63479,24.2772,17.62809,24.93241Zm1.13965-.83164V21.843a1.2546,1.2546,0,0,1,1.3273.42162,1.1235,1.1235,0,0,1,.08678,1.262A1.27741,1.27741,0,0,1,18.76774,24.10077Zm6.4636,4.53231c.00515-.14625-.05642-.195-.19643-.19065-.22045.0069-.44156.00862-.66185-.00055-.14951-.00622-.21508.0453-.20958.19915a5.78,5.78,0,0,1-.00384.58357.19691.19691,0,0,1-.1041.14805,1.08773,1.08773,0,0,1-.91167-.145,1.25389,1.25389,0,0,1-.32227-1.66691,1.11854,1.11854,0,0,1,1.55909-.309c.11134.08261.183.05407.25374-.05362.1139-.1734.23622-.34127.35466-.51171.14964-.21534.14554-.23609-.07149-.37359a2.25539,2.25539,0,0,0-2.4612.08283,2.22473,2.22473,0,0,0-.90421,2.28867,2.36,2.36,0,0,0,3.53868,1.47889.32208.32208,0,0,0,.13221-.22657c.01834-.21253.00622-.4277.00623-.64181C25.22931,29.07422,25.22357,28.85341,25.23134,28.63308ZM6.84053,30.15372c.13617-.08522.18266-.16012.07131-.30446a6.46574,6.46574,0,0,1-.383-.56225c-.08007-.13013-.15784-.13148-.28768-.067a1.596,1.596,0,0,1-.5216.188,1.08791,1.08791,0,0,1-1.1314-.71309A1.2109,1.2109,0,0,1,4.91783,27.331a1.086,1.086,0,0,1,1.33231-.05961c.09395.07446.16885.07563.24146-.03256.14084-.20987.28641-.41666.434-.62188.0813-.11305.04569-.18658-.06114-.25457a2.2504,2.2504,0,1,0-1.22087,4.13519A2.19275,2.19275,0,0,0,6.84053,30.15372ZM9.16559,25.9992a2.25039,2.25039,0,1,0,2.24709,2.257A2.259,2.259,0,0,0,9.16559,25.9992Zm1.12148,2.2382a1.12711,1.12711,0,1,1-1.12588-1.15918A1.11731,1.11731,0,0,1,10.28707,28.2374Z"/></svg>