<svg id="Слой_1" data-name="Слой 1" xmlns="http://www.w3.org/2000/svg" viewBox="0 0 25 25"><circle cx="12.5" cy="12.5" r="12.5" style="fill:#fff;opacity:0.6"/><path d="M11.7825,5.9445h.718c2.136,0,2.389.007,3.232.046a4.43334,4.43334,0,0,1,1.486.275,2.6494,2.6494,0,0,1,1.518,1.519,4.39407,4.39407,0,0,1,.275,1.485c.039.843.047,1.096.047,3.231s-.008,2.389-.047,3.232a4.42577,4.42577,0,0,1-.275,1.485,2.50007,2.50007,0,0,1-.599.919,2.47173,2.47173,0,0,1-.92.598,4.40108,4.40108,0,0,1-1.485.276c-.843.038-1.096.047-3.232.047s-2.39-.009-3.233-.047a4.41876,4.41876,0,0,1-1.485-.276,2.65484,2.65484,0,0,1-1.52-1.518,4.41986,4.41986,0,0,1-.275-1.485c-.038-.843-.046-1.096-.046-3.233s.008-2.388.046-3.231a4.42631,4.42631,0,0,1,.276-1.486,2.6494,2.6494,0,0,1,1.519-1.518,4.41876,4.41876,0,0,1,1.485-.276c.738-.034,1.024-.044,2.515-.045Zm4.988,1.328a.96.96,0,0,0,0,1.92h0a.96.96,0,1,0,0-1.92m-4.27,1.122a4.109,4.109,0,0,0-.12821,8.217q.06411.001.12821,0a4.109,4.109,0,0,0,0-8.217"/><path d="M12.49944,9.833a2.667,2.667,0,0,1,.00225,5.334h-.00225a2.667,2.667,0,0,1,0-5.334"/><path d="M12.5,4.5h-.002c2.174,0,2.445.01,3.299.048a5.88528,5.88528,0,0,1,1.943.372,4.09352,4.09352,0,0,1,2.34,2.34,5.91282,5.91282,0,0,1,.372,1.941c.038.854.048,1.126.048,3.299s-.01,2.445-.048,3.298a5.91951,5.91951,0,0,1-.372,1.942,4.09563,4.09563,0,0,1-2.339,2.34,5.90567,5.90567,0,0,1-1.943.372c-.854.038-1.125.048-3.298.048s-2.445-.01-3.299-.048a5.87321,5.87321,0,0,1-1.942-.372A4.09563,4.09563,0,0,1,4.92,17.74a5.89352,5.89352,0,0,1-.372-1.942c-.038-.853-.048-1.125-.048-3.297,0-2.174.01-2.446.048-3.301A5.86,5.86,0,0,1,4.92,7.26,4.09352,4.09352,0,0,1,7.26,4.92a5.8947,5.8947,0,0,1,1.943-.372C10.056,4.51,10.329,4.5,12.5,4.5m0-4.5A12.5,12.5,0,1,0,25,12.5,12.5,12.5,0,0,0,12.5,0Z"/></svg>