<?xml version="1.0" encoding="utf-8"?>
<!-- Generator: Adobe Illustrator 25.0.0, SVG Export Plug-In . SVG Version: 6.00 Build 0)  -->
<svg version="1.1" id="Слой_1" xmlns="http://www.w3.org/2000/svg" xmlns:xlink="http://www.w3.org/1999/xlink" x="0px" y="0px"
	 viewBox="0 0 25 25" style="enable-background:new 0 0 25 25;" xml:space="preserve">
<style type="text/css">
	.st0{opacity:0.6;fill:#FFFFFF;}
	.st1{fill:#0E0A0C;}
</style>
<circle class="st0" cx="12.5" cy="12.5" r="12.5"/>
<path class="st1" d="M9.4,19.6c5.2,0.1,9.4-4.1,9.5-9.3c0-0.1,0-0.1,0-0.2V9.7c0.7-0.5,1.3-1.1,1.7-1.8c-0.6,0.3-1.2,0.4-1.9,0.5
	c0.7-0.4,1.2-1.1,1.5-1.9c-0.6,0.4-1.4,0.7-2.1,0.8c-1.3-1.3-3.4-1.4-4.7-0.1c0,0,0,0,0,0c-0.9,0.8-1.2,2-1,3.2
	C9.7,10.3,7.2,9,5.5,6.9c-0.9,1.5-0.4,3.5,1,4.5c-0.5,0-1-0.2-1.5-0.4l0,0c0,1.6,1.1,3,2.7,3.3c-0.3,0.1-0.6,0.1-0.9,0.1
	c-0.2,0-0.4,0-0.6-0.1c0.4,1.4,1.7,2.3,3.1,2.3C8.1,17.5,6.6,18,5.1,18H4.3C5.8,19.1,7.6,19.6,9.4,19.6 M25,12.5
	C25,19.4,19.4,25,12.5,25S0,19.4,0,12.5S5.6,0,12.5,0C19.4,0,25,5.6,25,12.5z"/>
</svg>
