<svg id="Слой_1" data-name="Слой 1" xmlns="http://www.w3.org/2000/svg" viewBox="0 0 201.84912 47.51953"><path d="M127.88009,155.553v11.55664h-7.29v-37.7998h32.07568v7.29H127.88009v11.23193l21.32959-7.50635v7.77637Z" transform="translate(-120.59005 -129.30984)" style="fill:#c5db3b"/><path d="M165.5173,139.02956h13.82422v7.29H165.5173a6.41961,6.41961,0,0,0-4.77881,2.02491,6.623,6.623,0,0,0-1.97119,4.7788v13.98633h-7.29V153.12331a14.15209,14.15209,0,0,1,14.04-14.09375Z" transform="translate(-120.59005 -129.30984)" style="fill:#c5db3b"/><path d="M194.677,159.8196H212.7131v7.29H194.677a14.04,14.04,0,1,1,0-28.08008h9.936a8.11314,8.11314,0,0,1,8.1001,8.1543,8.07515,8.07515,0,0,1-5.4541,7.668l-13.82422,4.85938A7.42649,7.42649,0,0,0,194.677,159.8196Zm-6.75-6.75a6.50326,6.50326,0,0,0,.05371.80957l16.90234-5.88574a.81919.81919,0,0,0,.54-.97168.74076.74076,0,0,0-.81006-.70215h-9.936a6.72935,6.72935,0,0,0-6.75,6.75Z" transform="translate(-120.59005 -129.30984)" style="fill:#c5db3b"/><path d="M237.44406,139.02956a14.05781,14.05781,0,0,1,14.04,14.04v14.04h-7.29v-14.04a6.46755,6.46755,0,0,0-1.99805-4.7788,6.53487,6.53487,0,0,0-4.75195-1.9712H223.62032v20.79h-7.29V139.02956Z" transform="translate(-120.59005 -129.30984)" style="fill:#c5db3b"/><path d="M277.61984,154.04128l-13.5,4.96778a5.12851,5.12851,0,0,0-1.458.81054h21.92383v7.29h-29.916v-6.31836a8.00745,8.00745,0,0,1,1.86328-5.12988,11.38273,11.38273,0,0,1,5.10254-3.50976l13.44629-5.022a5.13093,5.13093,0,0,0,1.458-.81006H254.40011v-7.29h30.18555v6.31788a8.04392,8.04392,0,0,1-1.88965,5.15722A11.498,11.498,0,0,1,277.61984,154.04128Z" transform="translate(-120.59005 -129.30984)" style="fill:#c5db3b"/><path d="M315.14913,139.02956h7.29v28.08008a9.773,9.773,0,0,1-9.71972,9.71973H288.52706v-7.29h24.19239a2.49154,2.49154,0,0,0,2.42968-2.42969v-2.80859H301.32491a14.05864,14.05864,0,0,1-14.04-14.03955V139.02956h7.29V150.2615a6.53056,6.53056,0,0,0,1.97071,4.75146,6.46122,6.46122,0,0,0,4.77929,1.99805h13.82422Z" transform="translate(-120.59005 -129.30984)" style="fill:#c5db3b"/></svg>